<?xml version="1.0" encoding="UTF-8" standalone="no"?>
<svg width="177px" height="31px" viewBox="0 0 177 31" version="1.1" xmlns="http://www.w3.org/2000/svg" xmlns:xlink="http://www.w3.org/1999/xlink" xmlns:sketch="http://www.bohemiancoding.com/sketch/ns">
    <!-- Generator: sketchtool 3.5.2 (25235) - http://www.bohemiancoding.com/sketch -->
    <title>wordmark</title>
    <desc>Created with sketchtool.</desc>
    <defs></defs>
    <g id="v2" stroke="none" stroke-width="1" fill="none" fill-rule="evenodd" sketch:type="MSPage">
        <g id="icons" sketch:type="MSArtboardGroup" transform="translate(-185.000000, -29.000000)">
            <g id="wordmark" sketch:type="MSLayerGroup" transform="translate(170.000000, 14.000000)">
                <rect id="bounds" opacity="0" fill="#2D3C49" sketch:type="MSShapeGroup" x="0" y="0" width="206" height="62"></rect>
                <g transform="translate(61.000000, 23.000000)" fill="#FFFFFF" sketch:type="MSShapeGroup">
                    <path d="M12,9.6 C12,12.2 9.9,14.1 7,14.1 C4.1,14.1 2,12.2 2,9.6 L2,0 L0,0 L0,9.7 C0,13.1 2.9,16 7,16 C11.1,16 14,13 14,9.7 L14,0 L12,0 L12,9.6 L12,9.6 Z" id="Shape"></path>
                    <path d="M28.4,0 L23,0 L23,16 L28.4,16 C32.9,16 36,12.9 36,8 C36,3.2 32.9,0 28.4,0 L28.4,0 Z M28.2,14 L25,14 L25,2 L28.2,2 C31.6,2 34,4.3 34,8 C34,12 31.5,13.9 28.2,14 L28.2,14 Z" id="Shape"></path>
                    <path d="M72,14.3 C68.4,14.3 66,11.6 66,8 C66,4.4 68.5,1.8 72,1.8 C74.8,1.8 76.5,3.4 76.5,3.4 L77.3,2 C77.3,2 75.5,0.1 71.8,0.1 C67,0.1 64,3.7 64,8 C64,12.4 67.1,16.1 72,16.1 C75.8,16.1 77.7,13.5 77.7,13.5 L76.6,12.3 C76.5,12.2 75,14.3 72,14.3 L72,14.3 Z" id="Shape"></path>
                    <rect id="Rectangle-path" x="87" y="0" width="2" height="16"></rect>
                    <path d="M98,2 L103,2 L103,16 L105,16 L105,2 L110,2 L110,0 L98,0 L98,2 Z" id="Shape"></path>
                    <path d="M128.8,0 L124,7.3 L119.1,0 L117,0 L123,8.9 L123,16 L125,16 L125,8.9 L130.9,0 L128.8,0 Z" id="Shape"></path>
                    <path d="M48.9,0 L42.7,16 L44.7,16 L46.4,11.4 L52.9,10 L55.1,16 L57.1,16 L51,0 L48.9,0 L48.9,0 Z M47,9.5 L50,2.1 L50.1,2.1 L52.6,8.4 L47,9.5 L47,9.5 Z" id="Shape"></path>
                </g>
                <g id="mark" transform="translate(15.000000, 15.000000)" fill="#02B3E4" sketch:type="MSShapeGroup">
                    <path d="M29,0.1 L20,4.8 L20,4.8 L20,19.7 C20,20.3 20,21 19.8,21.6 C19.7,22.2 19.5,22.8 19.3,23.3 C19.2,23.4 19.2,23.6 19.1,23.7 C18.8,23.7 16.6,23 15.6,22.3 C15.2,22 14.8,21.7 14.4,21.3 C14,20.9 13.7,20.5 13.4,20.1 C13.1,19.7 12.8,19.2 12.6,18.7 C12.4,18.2 12.2,17.7 12.1,17.1 C12,16.6 12,16 12,15.5 L12,1.2 L10,0 L0,5.9 L0,19.6 C0,25.9 5.1,31 11.3,31 C13.4,31 15.3,30.5 17,29.5 L25.4,24.7 C28.7,23 31,19.5 31,15.6 L31,1.3 L29,0.1 L29,0.1 Z M17.9,26.2 C17,27.1 16.3,27.6 15.3,28.1 C14.7,28.3 14,28.6 13.4,28.8 C12.8,28.9 12.2,29 11.6,29 C11,29 10,28.9 9.4,28.8 C8.8,28.7 8.2,28.5 7.7,28.3 C7.2,28.1 6.6,27.8 6.1,27.4 C4.8,26.5 4.2,25.7 3.6,24.9 C3.3,24.4 3,23.9 2.7,23.3 C2.5,22.7 2.3,22.2 2.2,21.6 C2,20.9 2,20.2 2,19.6 L2,7.1 L10,2.4 L10,15.5 L10,15.5 C10,20.5 13.7,24.6 18.4,25.6 C18.2,25.8 18.1,26 17.9,26.2 L17.9,26.2 Z M28.9,17.2 C28.8,17.7 28.6,18.2 28.4,18.7 C28.2,19.2 27.8,19.9 27.4,20.4 C26.8,21.1 26.2,21.6 24.7,22.5 C23.4,23.2 22.3,23.4 21.6,23.6 C22.1,22.4 22.1,21.1 22.1,19.7 L22,6 L29,2.3 L29,15.6 C29,16.1 29,16.7 28.9,17.2 L28.9,17.2 Z" id="Shape"></path>
                </g>
            </g>
        </g>
    </g>
</svg>